# Blender v3.2.0 OBJ File: 'everyday_bot_copy.blend'
# www.blender.org
mtllib arm_link6.mtl
o arm_link6_Cylinder.081
v -0.000213 0.017587 -0.039466
v 0.029787 0.017587 -0.039466
v -0.000213 0.010267 -0.046787
v 0.029787 0.010267 -0.046787
v -0.000213 0.000267 -0.049466
v 0.029787 0.000267 -0.049466
v -0.000213 -0.009733 -0.046787
v 0.029787 -0.009733 -0.046787
v -0.000213 -0.017054 -0.039466
v 0.029787 -0.017054 -0.039466
v 0.029787 0.020267 -0.029466
v -0.000213 0.020267 -0.029466
v 0.029787 -0.019733 -0.029466
v -0.000213 -0.019733 -0.029466
v -0.000213 0.020267 -0.008213
v 0.029787 0.020259 -0.008240
v -0.000213 -0.019733 -0.008213
v 0.029787 -0.019733 -0.008213
v -0.000213 -0.017054 0.001787
v 0.029787 -0.017054 0.001787
v 0.000787 -0.017054 0.011534
v 0.029787 -0.009733 0.009108
v -0.000213 0.000267 0.011787
v 0.029787 0.000267 0.011787
v 0.000787 0.017587 0.011534
v 0.029787 0.010267 0.009108
v -0.000213 0.017587 0.001787
v 0.029787 0.017587 0.001787
v -0.000213 0.020252 -0.008266
v 0.029787 -0.019719 -0.008266
v -0.000213 -0.019719 -0.008266
v -0.009213 0.020267 -0.008466
v -0.009213 0.020267 0.011534
v 0.008107 0.010267 -0.008466
v 0.008107 0.010267 0.011534
v 0.010787 0.000267 -0.008466
v 0.010787 0.000267 0.011534
v 0.008107 -0.009733 -0.008466
v 0.008107 -0.009733 0.011534
v -0.009213 -0.019733 -0.008466
v -0.009213 -0.019733 0.011534
v -0.019213 -0.017054 -0.008466
v -0.019213 -0.017054 0.011534
v -0.026534 -0.009733 -0.008466
v -0.026534 -0.009733 0.011534
v -0.029213 0.000267 -0.008466
v -0.029213 0.000267 0.011534
v -0.026534 0.010267 -0.008466
v -0.026534 0.010267 0.011534
v -0.019213 0.017587 -0.008466
v -0.019213 0.017587 0.011534
v -0.009213 0.020267 0.011534
v -0.009213 0.020267 0.031534
v 0.000787 0.017587 0.011534
v 0.000787 0.017587 0.031534
v 0.008107 0.010267 0.011534
v 0.008107 0.010267 0.031534
v 0.010787 0.000267 0.011534
v 0.010787 0.000267 0.031534
v 0.008107 -0.009733 0.011534
v 0.008107 -0.009733 0.031534
v 0.000787 -0.017054 0.011534
v 0.000787 -0.017054 0.031534
v -0.009213 -0.019733 0.011534
v -0.009213 -0.019733 0.031534
v -0.019213 -0.017054 0.011534
v -0.019213 -0.017054 0.031534
v -0.026534 -0.009733 0.011534
v -0.026534 -0.009733 0.031534
v -0.029213 0.000267 0.011534
v -0.029213 0.000267 0.031534
v -0.026534 0.010267 0.011534
v -0.026534 0.010267 0.031534
v -0.019213 0.017587 0.011534
v -0.019213 0.017587 0.031534
vt 0.916667 1.000000
vt 0.916667 0.500000
vt 1.000000 0.500000
vt 1.000000 1.000000
vt 0.833333 1.000000
vt 0.833333 0.500000
vt 0.750000 1.000000
vt 0.750000 0.500000
vt 0.666667 1.000000
vt 0.666667 0.500000
vt 0.583333 1.000000
vt 0.583333 0.500000
vt 0.500000 1.000000
vt 0.500000 0.500000
vt 0.250000 0.010000
vt 0.370000 0.042154
vt 0.457846 0.130000
vt 0.490000 0.250000
vt 0.457846 0.370000
vt 0.370000 0.457846
vt 0.250000 0.490000
vt 0.750000 0.490000
vt 0.870000 0.457846
vt 0.957846 0.370000
vt 0.990000 0.250000
vt 0.957846 0.130000
vt 0.870000 0.042154
vt 0.750000 0.010000
vt 0.125000 0.500000
vt 0.125000 0.500000
vt 0.125000 0.750000
vt 0.125000 0.750000
vt 1.000000 0.500000
vt 0.999556 1.000000
vt 0.999556 0.500000
vt 0.500000 1.000000
vt 0.500000 0.500000
vt 0.500445 0.500000
vt 0.500445 1.000000
vt 0.416667 1.000000
vt 0.416667 0.500000
vt 0.333333 1.000000
vt 0.333333 0.500000
vt 0.250000 1.000000
vt 0.250000 0.500000
vt 0.166667 1.000000
vt 0.166667 0.500000
vt 0.250000 0.490000
vt 0.130000 0.457846
vt 0.042154 0.370000
vt 0.010000 0.250000
vt 0.042154 0.130000
vt 0.130000 0.042154
vt 0.250000 0.010000
vt 0.250640 0.010171
vt 0.083333 1.000000
vt 0.083333 0.500000
vt 0.000000 1.000000
vt 0.000000 0.500000
vt 0.750640 0.010171
vt 0.750000 0.010000
vt 0.630000 0.042154
vt 0.542154 0.130000
vt 0.510000 0.250000
vt 0.542154 0.370000
vt 0.630000 0.457846
vt 0.750000 0.490000
vt 0.750640 0.489829
vt 0.625000 0.749911
vt 0.625000 0.749911
vt 0.625000 0.500089
vt 0.625000 0.500089
vt 0.375000 0.000000
vt 0.625000 0.000000
vt 0.625000 0.250000
vt 0.375000 0.250000
vt 0.625000 0.500000
vt 0.375000 0.500000
vt 0.625000 0.750000
vt 0.375000 0.750000
vt 0.625000 1.000000
vt 0.375000 1.000000
vt 0.875000 0.500000
vt 0.875000 0.750000
vt 1.000000 0.500000
vt 1.000000 1.000000
vt 0.916667 1.000000
vt 0.916667 0.500000
vt 0.833333 1.000000
vt 0.833333 0.500000
vt 0.750000 1.000000
vt 0.750000 0.500000
vt 0.666667 1.000000
vt 0.666667 0.500000
vt 0.583333 1.000000
vt 0.583333 0.500000
vt 0.500000 1.000000
vt 0.500000 0.500000
vt 0.416667 1.000000
vt 0.416667 0.500000
vt 0.333333 1.000000
vt 0.333333 0.500000
vt 0.250000 1.000000
vt 0.250000 0.500000
vt 0.166667 1.000000
vt 0.166667 0.500000
vt 0.370000 0.457846
vt 0.250000 0.490000
vt 0.130000 0.457846
vt 0.042154 0.370000
vt 0.010000 0.250000
vt 0.042154 0.130000
vt 0.130000 0.042154
vt 0.250000 0.010000
vt 0.370000 0.042154
vt 0.457846 0.130000
vt 0.490000 0.250000
vt 0.457846 0.370000
vt 0.083333 1.000000
vt 0.083333 0.500000
vt 0.000000 1.000000
vt 0.000000 0.500000
vt 0.750000 0.490000
vt 0.870000 0.457846
vt 0.957846 0.370000
vt 0.990000 0.250000
vt 0.957846 0.130000
vt 0.870000 0.042154
vt 0.750000 0.010000
vt 0.630000 0.042154
vt 0.542154 0.130000
vt 0.510000 0.250000
vt 0.542154 0.370000
vt 0.630000 0.457846
vt 1.000000 0.500000
vt 1.000000 1.000000
vt 0.916667 1.000000
vt 0.916667 0.500000
vt 0.833333 1.000000
vt 0.833333 0.500000
vt 0.750000 1.000000
vt 0.750000 0.500000
vt 0.666667 1.000000
vt 0.666667 0.500000
vt 0.583333 1.000000
vt 0.583333 0.500000
vt 0.500000 1.000000
vt 0.500000 0.500000
vt 0.416667 1.000000
vt 0.416667 0.500000
vt 0.333333 1.000000
vt 0.333333 0.500000
vt 0.250000 1.000000
vt 0.250000 0.500000
vt 0.166667 1.000000
vt 0.166667 0.500000
vt 0.370000 0.457846
vt 0.250000 0.490000
vt 0.130000 0.457846
vt 0.042154 0.370000
vt 0.010000 0.250000
vt 0.042154 0.130000
vt 0.130000 0.042154
vt 0.250000 0.010000
vt 0.370000 0.042154
vt 0.457846 0.130000
vt 0.490000 0.250000
vt 0.457846 0.370000
vt 0.083333 1.000000
vt 0.083333 0.500000
vt 0.000000 1.000000
vt 0.000000 0.500000
vt 0.750000 0.490000
vt 0.870000 0.457846
vt 0.957846 0.370000
vt 0.990000 0.250000
vt 0.957846 0.130000
vt 0.870000 0.042154
vt 0.750000 0.010000
vt 0.630000 0.042154
vt 0.542154 0.130000
vt 0.510000 0.250000
vt 0.542154 0.370000
vt 0.630000 0.457846
vn 0.0000 0.9659 -0.2588
vn 0.0000 0.7071 -0.7071
vn 0.0000 0.2588 -0.9659
vn 0.0000 -0.2588 -0.9659
vn 0.0000 -0.7071 -0.7071
vn 0.0000 -0.9659 -0.2588
vn 1.0000 -0.0000 0.0000
vn -1.0000 0.0000 0.0000
vn 0.0000 0.0000 1.0000
vn 0.0000 -0.9659 0.2588
vn 0.1292 -0.9140 0.3845
vn 0.0538 -0.1046 0.9931
vn 0.0538 0.1046 0.9931
vn 0.1292 0.9140 0.3845
vn 0.0002 0.9661 0.2582
vn -0.9997 -0.0000 0.0241
vn 0.0004 0.0003 -1.0000
vn 0.0001 1.0000 0.0002
vn -0.0000 -1.0000 -0.0000
vn 0.0004 0.0003 1.0000
vn 0.1395 0.9882 0.0627
vn 0.7418 0.6701 0.0262
vn 0.9659 0.2588 -0.0000
vn 0.9659 -0.2588 -0.0000
vn 0.7421 -0.6698 0.0265
vn 0.1385 -0.9883 0.0631
vn -0.2588 -0.9659 -0.0000
vn -0.7071 -0.7071 -0.0000
vn -0.9659 -0.2588 0.0000
vn -0.9659 0.2588 0.0000
vn -0.7071 0.7071 -0.0000
vn -0.2588 0.9659 -0.0000
vn 0.0018 -0.0004 -1.0000
vn 0.2588 0.9659 -0.0000
vn 0.7071 0.7071 0.0000
vn 0.7071 -0.7071 0.0000
vn 0.2588 -0.9659 0.0000
vn 0.0000 0.0000 -1.0000
usemtl None
s off
f 2/1/1 1/2/1 12/3/1 11/4/1
f 1/2/2 2/1/2 4/5/2 3/6/2
f 3/6/3 4/5/3 6/7/3 5/8/3
f 5/8/4 6/7/4 8/9/4 7/10/4
f 7/10/5 8/9/5 10/11/5 9/12/5
f 9/12/6 10/11/6 13/13/6 14/14/6
f 13/15/7 10/16/7 8/17/7 6/18/7 4/19/7 2/20/7 11/21/7
f 12/22/8 1/23/8 3/24/8 5/25/8 7/26/8 9/27/8 14/28/8
f 11/29/9 12/30/9 14/31/9 13/32/9
f 15/33/1 16/34/1 29/35/1
f 18/36/6 17/37/6 31/38/6 30/39/6
f 17/37/10 18/36/10 20/40/10 19/41/10
f 19/41/11 20/40/11 22/42/11 21/43/11
f 21/43/12 22/42/12 24/44/12 23/45/12
f 23/45/13 24/44/13 26/46/13 25/47/13
f 16/48/7 28/49/7 26/50/7 24/51/7 22/52/7 20/53/7 18/54/7 30/55/7
f 25/47/14 26/46/14 28/56/14 27/57/14
f 27/57/15 28/56/15 16/58/15 15/59/15
f 31/60/16 17/61/16 19/62/16 21/63/16 23/64/16 25/65/16 27/66/16 15/67/16 29/68/16
f 30/69/17 31/70/17 29/71/17 16/72/17
f 14/73/8 17/74/8 15/75/8 12/76/8
f 12/76/18 15/75/18 16/77/18 11/78/18
f 11/78/7 16/77/7 18/79/7 13/80/7
f 13/80/19 18/79/19 17/81/19 14/82/19
f 16/77/20 15/83/20 17/84/20 18/79/20
f 32/85/21 33/86/21 25/87/21 29/88/21
f 29/88/22 25/87/22 35/89/22 34/90/22
f 34/90/23 35/89/23 37/91/23 36/92/23
f 36/92/24 37/91/24 39/93/24 38/94/24
f 38/94/25 39/93/25 21/95/25 17/96/25
f 17/96/26 21/95/26 41/97/26 40/98/26
f 40/98/27 41/97/27 43/99/27 42/100/27
f 42/100/28 43/99/28 45/101/28 44/102/28
f 44/102/29 45/101/29 47/103/29 46/104/29
f 46/104/30 47/103/30 49/105/30 48/106/30
f 25/107/9 33/108/9 51/109/9 49/110/9 47/111/9 45/112/9 43/113/9 41/114/9 21/115/9 39/116/9 37/117/9 35/118/9
f 48/106/31 49/105/31 51/119/31 50/120/31
f 50/120/32 51/119/32 33/121/32 32/122/32
f 32/123/33 29/124/33 34/125/33 36/126/33 38/127/33 17/128/33 40/129/33 42/130/33 44/131/33 46/132/33 48/133/33 50/134/33
f 52/135/34 53/136/34 55/137/34 54/138/34
f 54/138/35 55/137/35 57/139/35 56/140/35
f 56/140/23 57/139/23 59/141/23 58/142/23
f 58/142/24 59/141/24 61/143/24 60/144/24
f 60/144/36 61/143/36 63/145/36 62/146/36
f 62/146/37 63/145/37 65/147/37 64/148/37
f 64/148/27 65/147/27 67/149/27 66/150/27
f 66/150/28 67/149/28 69/151/28 68/152/28
f 68/152/29 69/151/29 71/153/29 70/154/29
f 70/154/30 71/153/30 73/155/30 72/156/30
f 55/157/9 53/158/9 75/159/9 73/160/9 71/161/9 69/162/9 67/163/9 65/164/9 63/165/9 61/166/9 59/167/9 57/168/9
f 72/156/31 73/155/31 75/169/31 74/170/31
f 74/170/32 75/169/32 53/171/32 52/172/32
f 52/173/38 54/174/38 56/175/38 58/176/38 60/177/38 62/178/38 64/179/38 66/180/38 68/181/38 70/182/38 72/183/38 74/184/38
