# Blender v3.2.0 OBJ File: 'everyday_bot_copy.blend'
# www.blender.org
mtllib arm_link5.mtl
o arm_link5_Cylinder.079
v -0.024061 0.020000 0.068994
v 0.019939 0.020000 0.068966
v -0.024068 0.017321 0.058994
v 0.019932 0.017321 0.058966
v -0.024072 0.010000 0.051674
v 0.019928 0.010000 0.051645
v -0.024074 0.000000 0.048994
v 0.019926 0.000000 0.048966
v -0.024072 -0.010000 0.051674
v 0.019928 -0.010000 0.051645
v -0.024068 -0.017321 0.058994
v 0.019932 -0.017321 0.058966
v -0.024061 -0.020000 0.068994
v 0.019939 -0.020000 0.068966
v -0.024055 -0.017321 0.078994
v 0.019945 -0.017321 0.078966
v -0.024050 -0.010000 0.086315
v 0.019950 -0.010000 0.086287
v -0.024048 0.000000 0.088994
v 0.019952 0.000000 0.088966
v -0.024050 0.010000 0.086315
v 0.019950 0.010000 0.086287
v -0.024055 0.017321 0.078994
v 0.019945 0.017321 0.078966
v 0.005439 0.030000 -0.111020
v 0.000689 0.025000 -0.031022
v 0.020439 0.025981 -0.111020
v 0.013189 0.021651 -0.031022
v 0.031420 0.015000 -0.111020
v 0.022339 0.012500 -0.031022
v 0.035439 -0.000000 -0.111020
v 0.025689 -0.000000 -0.031022
v 0.031420 -0.015000 -0.111020
v 0.022339 -0.012500 -0.031022
v 0.020439 -0.025981 -0.111020
v 0.013189 -0.021651 -0.031022
v 0.005439 -0.030000 -0.111020
v 0.000689 -0.025000 -0.031022
v -0.009561 -0.025981 -0.111020
v -0.011811 -0.021651 -0.031022
v -0.020542 -0.015000 -0.111020
v -0.020962 -0.012500 -0.031022
v -0.024561 -0.000000 -0.111020
v -0.024311 -0.000000 -0.031022
v -0.020542 0.015000 -0.111020
v -0.020962 0.012500 -0.031022
v -0.009561 0.025981 -0.111020
v -0.011811 0.021651 -0.031022
v -0.024061 -0.000000 0.048976
vt 1.000000 0.500000
vt 1.000000 1.000000
vt 0.916667 1.000000
vt 0.916667 0.500000
vt 0.833333 1.000000
vt 0.833333 0.500000
vt 0.750000 1.000000
vt 0.750000 0.500000
vt 0.666667 1.000000
vt 0.666667 0.500000
vt 0.583333 1.000000
vt 0.583333 0.500000
vt 0.500000 1.000000
vt 0.500000 0.500000
vt 0.416667 1.000000
vt 0.416667 0.500000
vt 0.333333 1.000000
vt 0.333333 0.500000
vt 0.250000 1.000000
vt 0.250000 0.500000
vt 0.166667 1.000000
vt 0.166667 0.500000
vt 0.370000 0.457846
vt 0.250000 0.490000
vt 0.130000 0.457846
vt 0.042154 0.370000
vt 0.010000 0.250000
vt 0.042154 0.130000
vt 0.130000 0.042154
vt 0.250000 0.010000
vt 0.370000 0.042154
vt 0.457846 0.130000
vt 0.490000 0.250000
vt 0.457846 0.370000
vt 0.083333 1.000000
vt 0.083333 0.500000
vt 0.000000 1.000000
vt 0.000000 0.500000
vt 0.750000 0.490000
vt 0.870000 0.457846
vt 0.957846 0.370000
vt 0.990000 0.250000
vt 0.957846 0.130000
vt 0.870000 0.042154
vt 0.750000 0.010000
vt 0.630000 0.042154
vt 0.542154 0.130000
vt 0.510000 0.250000
vt 0.542154 0.370000
vt 0.630000 0.457846
vt 1.000000 0.500000
vt 1.000000 1.000000
vt 0.916667 1.000000
vt 0.916667 0.500000
vt 0.833333 1.000000
vt 0.833333 0.500000
vt 0.750000 1.000000
vt 0.750000 0.500000
vt 0.666667 1.000000
vt 0.666667 0.500000
vt 0.583333 1.000000
vt 0.583333 0.500000
vt 0.500000 1.000000
vt 0.500000 0.500000
vt 0.416667 1.000000
vt 0.416667 0.500000
vt 0.333333 1.000000
vt 0.333333 0.500000
vt 0.250000 1.000000
vt 0.250000 0.500000
vt 0.166667 1.000000
vt 0.166667 0.500000
vt 0.370000 0.457846
vt 0.250000 0.490000
vt 0.130000 0.457846
vt 0.042154 0.370000
vt 0.010000 0.250000
vt 0.042154 0.130000
vt 0.130000 0.042154
vt 0.250000 0.010000
vt 0.370000 0.042154
vt 0.457846 0.130000
vt 0.490000 0.250000
vt 0.457846 0.370000
vt 0.083333 1.000000
vt 0.083333 0.500000
vt 0.000000 1.000000
vt 0.000000 0.500000
vt 0.750000 0.490000
vt 0.870000 0.457846
vt 0.957846 0.370000
vt 0.990000 0.250000
vt 0.957846 0.130000
vt 0.870000 0.042154
vt 0.750000 0.010000
vt 0.630000 0.042154
vt 0.542154 0.130000
vt 0.510000 0.250000
vt 0.542154 0.370000
vt 0.630000 0.457846
vt 1.000000 0.500000
vt 1.000000 1.000000
vt 0.916667 0.500000
vt 0.833333 0.500000
vt 0.750000 0.500000
vt 0.666667 0.500000
vt 0.583333 0.500000
vt 0.500000 1.000000
vt 0.500000 0.500000
vt 0.416667 1.000000
vt 0.416667 0.500000
vt 0.333333 1.000000
vt 0.333333 0.500000
vt 0.250000 1.000000
vt 0.250000 0.500000
vt 0.166667 1.000000
vt 0.166667 0.500000
vt 0.130000 0.457846
vt 0.042154 0.370000
vt 0.010000 0.250000
vt 0.042154 0.130000
vt 0.250000 0.010000
vt 0.083333 1.000000
vt 0.083333 0.500000
vt 0.000000 1.000000
vt 0.000000 0.500000
vn -0.0002 0.9659 -0.2588
vn -0.0005 0.7071 -0.7071
vn -0.0006 0.2588 -0.9659
vn -0.0006 -0.2588 -0.9659
vn -0.0005 -0.7071 -0.7071
vn -0.0002 -0.9659 -0.2588
vn 0.0002 -0.9659 0.2588
vn 0.0005 -0.7071 0.7071
vn 0.0006 -0.2588 0.9659
vn 0.0006 0.2588 0.9659
vn 1.0000 -0.0000 -0.0006
vn 0.0005 0.7071 0.7071
vn 0.0002 0.9659 0.2588
vn -1.0000 0.0000 0.0006
vn 0.2581 0.9632 0.0755
vn 0.7034 0.7034 0.1018
vn 0.9593 0.2570 0.1169
vn 0.9593 -0.2570 0.1169
vn 0.7034 -0.7034 0.1018
vn 0.2581 -0.9632 0.0755
vn -0.2586 -0.9649 0.0450
vn -0.7070 -0.7070 0.0184
vn -0.9659 -0.2588 0.0030
vn -0.9659 0.2588 0.0030
vn 0.0000 0.0000 1.0000
vn -0.7070 0.7070 0.0184
vn -0.2586 0.9649 0.0450
vn -0.0000 0.0000 -1.0000
vn 0.0591 0.9956 0.0723
vn 0.8738 0.4864 -0.0027
vn 0.9887 0.1409 0.0519
vn 0.9887 -0.1409 0.0519
vn 0.8738 -0.4864 -0.0027
vn 0.0591 -0.9956 0.0723
vn -0.2588 -0.9659 0.0112
vn -0.8617 -0.5042 -0.0567
vn -0.9888 -0.1485 -0.0151
vn -0.9888 0.1485 -0.0151
vn 0.0005 -0.0000 1.0000
vn -0.8617 0.5042 -0.0567
vn -0.2588 0.9659 0.0112
usemtl None
s off
f 1/1/1 2/2/1 4/3/1 3/4/1
f 3/4/2 4/3/2 6/5/2 5/6/2
f 5/6/3 6/5/3 8/7/3 7/8/3
f 7/8/4 8/7/4 10/9/4 9/10/4
f 9/10/5 10/9/5 12/11/5 11/12/5
f 11/12/6 12/11/6 14/13/6 13/14/6
f 13/14/7 14/13/7 16/15/7 15/16/7
f 15/16/8 16/15/8 18/17/8 17/18/8
f 17/18/9 18/17/9 20/19/9 19/20/9
f 19/20/10 20/19/10 22/21/10 21/22/10
f 4/23/11 2/24/11 24/25/11 22/26/11 20/27/11 18/28/11 16/29/11 14/30/11 12/31/11 10/32/11 8/33/11 6/34/11
f 21/22/12 22/21/12 24/35/12 23/36/12
f 23/36/13 24/35/13 2/37/13 1/38/13
f 1/39/14 3/40/14 5/41/14 7/42/14 9/43/14 11/44/14 13/45/14 15/46/14 17/47/14 19/48/14 21/49/14 23/50/14
f 25/51/15 26/52/15 28/53/15 27/54/15
f 27/54/16 28/53/16 30/55/16 29/56/16
f 29/56/17 30/55/17 32/57/17 31/58/17
f 31/58/18 32/57/18 34/59/18 33/60/18
f 33/60/19 34/59/19 36/61/19 35/62/19
f 35/62/20 36/61/20 38/63/20 37/64/20
f 37/64/21 38/63/21 40/65/21 39/66/21
f 39/66/22 40/65/22 42/67/22 41/68/22
f 41/68/23 42/67/23 44/69/23 43/70/23
f 43/70/24 44/69/24 46/71/24 45/72/24
f 28/73/25 26/74/25 48/75/25 46/76/25 44/77/25 42/78/25 40/79/25 38/80/25 36/81/25 34/82/25 32/83/25 30/84/25
f 45/72/26 46/71/26 48/85/26 47/86/26
f 47/86/27 48/85/27 26/87/27 25/88/27
f 25/89/28 27/90/28 29/91/28 31/92/28 33/93/28 35/94/28 37/95/28 39/96/28 41/97/28 43/98/28 45/99/28 47/100/28
f 26/101/29 3/102/29 4/3/29 28/103/29
f 28/103/30 4/3/30 6/5/30 30/104/30
f 30/104/31 6/5/31 8/7/31 32/105/31
f 32/105/32 8/7/32 10/9/32 34/106/32
f 34/106/33 10/9/33 12/11/33 36/107/33
f 36/107/34 12/11/34 11/108/34 38/109/34
f 38/109/35 11/110/35 40/111/35
f 40/111/36 11/110/36 9/112/36 42/113/36
f 42/113/37 9/112/37 49/114/37 44/115/37
f 44/115/38 49/114/38 5/116/38 46/117/38
f 4/23/39 3/118/39 5/119/39 49/120/39 9/121/39 11/122/39 12/31/39 10/32/39 8/33/39 6/34/39
f 46/117/40 5/116/40 3/123/40 48/124/40
f 48/124/41 3/125/41 26/126/41
