# Blender v3.2.0 OBJ File: 'everyday_bot_copy.blend'
# www.blender.org
mtllib arm_link4.mtl
o arm_link4_Cylinder.076
v 0.015317 0.030079 -0.012815
v 0.045376 0.030079 -0.012815
v 0.015317 0.026059 -0.027815
v 0.045376 0.026059 -0.027815
v 0.015317 0.015079 -0.038796
v 0.045376 0.015079 -0.038796
v 0.015317 0.000079 -0.042815
v 0.045376 0.000079 -0.042815
v 0.015317 -0.014921 -0.038796
v 0.045376 -0.014921 -0.038796
v 0.015317 -0.025902 -0.027815
v 0.045376 -0.025902 -0.027815
v 0.015317 -0.029921 -0.012815
v 0.045376 -0.029921 -0.012815
v 0.015317 -0.025902 0.002185
v 0.045376 -0.025902 0.002185
v 0.015317 -0.014921 0.013165
v 0.045376 -0.014921 0.013165
v 0.015317 0.000078 0.017185
v 0.045376 0.000079 0.017185
v 0.015317 0.026059 0.002185
v 0.045376 0.015079 0.013165
v 0.045376 0.026059 0.002185
v -0.044683 0.000079 0.017185
v -0.040664 -0.014921 0.017185
v -0.029683 -0.025902 0.017185
v -0.014683 -0.029921 0.017185
v 0.000317 -0.025902 0.017185
v 0.011298 -0.014921 0.017185
v 0.011298 0.015079 0.017185
v 0.000317 0.026059 0.017185
v -0.014683 0.030079 0.017185
v -0.029683 0.026059 0.017185
v -0.040664 0.015079 0.017185
v -0.044170 0.000079 0.009353
v -0.040185 -0.014921 0.009878
v -0.029298 -0.025902 0.011311
v -0.014426 -0.029921 0.013269
v 0.000445 -0.025902 0.015227
v 0.011332 -0.014921 0.016660
v 0.011332 0.015079 0.016660
v 0.000445 0.026059 0.015227
v -0.014426 0.030079 0.013269
v -0.029298 0.026059 0.011311
v -0.040185 0.015079 0.009878
v -0.042639 0.000079 0.001655
v -0.038756 -0.014921 0.002696
v -0.028150 -0.025902 0.005538
v -0.013661 -0.029921 0.009420
v 0.000828 -0.025902 0.013302
v 0.011435 -0.014921 0.016144
v 0.011435 0.015079 0.016144
v 0.000828 0.026059 0.013302
v -0.013661 0.030079 0.009420
v -0.028150 0.026059 0.005538
v -0.038756 0.015079 0.002696
v -0.040116 0.000079 -0.005776
v -0.036402 -0.014921 -0.004238
v -0.026258 -0.025902 -0.000036
v -0.012399 -0.029921 0.005704
v 0.001459 -0.025902 0.011444
v 0.011604 -0.014921 0.015646
v 0.011604 0.015079 0.015646
v 0.001459 0.026059 0.011444
v -0.012399 0.030079 0.005704
v -0.026258 0.026059 -0.000036
v -0.036402 0.015079 -0.004238
v -0.036644 0.000079 -0.012815
v -0.033164 -0.014921 -0.010806
v -0.023654 -0.025902 -0.005315
v -0.010664 -0.029921 0.002185
v 0.002327 -0.025902 0.009685
v 0.011836 -0.014921 0.015175
v 0.011836 0.015079 0.015175
v 0.002327 0.026059 0.009685
v -0.010664 0.030079 0.002185
v -0.023654 0.026059 -0.005315
v -0.033164 0.015079 -0.010806
v -0.032284 0.000079 -0.019341
v -0.029096 -0.014921 -0.016894
v -0.020384 -0.025902 -0.010210
v -0.008484 -0.029921 -0.001078
v 0.003417 -0.025902 0.008053
v 0.012128 -0.014921 0.014738
v 0.012128 0.015079 0.014738
v 0.003417 0.026059 0.008053
v -0.008484 0.030079 -0.001078
v -0.020384 0.026059 -0.010210
v -0.029096 0.015079 -0.016894
v -0.027109 0.000079 -0.025242
v -0.024267 -0.014921 -0.022400
v -0.016503 -0.025902 -0.014635
v -0.005896 -0.029921 -0.004029
v 0.004710 -0.025902 0.006578
v 0.012475 -0.014921 0.014343
v 0.012475 0.015079 0.014343
v 0.004710 0.026059 0.006578
v -0.005896 0.030079 -0.004029
v -0.016503 0.026059 -0.014635
v -0.024267 0.015079 -0.022400
v -0.021209 0.000079 -0.030417
v -0.018762 -0.014921 -0.027228
v -0.012077 -0.025902 -0.018516
v -0.002946 -0.029921 -0.006616
v 0.006186 -0.025902 0.005284
v 0.012870 -0.014921 0.013996
v 0.012870 0.015079 0.013996
v 0.006186 0.026059 0.005284
v -0.002946 0.030079 -0.006616
v -0.012077 0.026059 -0.018516
v -0.018762 0.015079 -0.027228
v -0.014683 0.000079 -0.034777
v -0.012673 -0.014921 -0.031296
v -0.007183 -0.025902 -0.021787
v 0.000317 -0.029921 -0.008796
v 0.007817 -0.025902 0.004194
v 0.013307 -0.014921 0.013704
v 0.013307 0.015079 0.013704
v 0.007817 0.026059 0.004194
v 0.000317 0.030079 -0.008796
v -0.007183 0.026059 -0.021787
v -0.012673 0.015079 -0.031296
v -0.007644 0.000079 -0.038248
v -0.006106 -0.014921 -0.034535
v -0.001904 -0.025902 -0.024390
v 0.003837 -0.029921 -0.010532
v 0.009577 -0.025902 0.003326
v 0.013779 -0.014921 0.013471
v 0.013779 0.015079 0.013471
v 0.009577 0.026059 0.003326
v 0.003837 0.030079 -0.010532
v -0.001904 0.026059 -0.024390
v -0.006106 0.015079 -0.034535
v -0.000212 0.000079 -0.040771
v 0.000828 -0.014921 -0.036889
v 0.003670 -0.025902 -0.026282
v 0.007552 -0.029921 -0.011793
v 0.011435 -0.025902 0.002696
v 0.014277 -0.014921 0.013302
v 0.014277 0.015079 0.013302
v 0.011435 0.026059 0.002696
v 0.007552 0.030079 -0.011793
v 0.003670 0.026059 -0.026282
v 0.000828 0.015079 -0.036889
v 0.007485 0.000079 -0.042302
v 0.008010 -0.014921 -0.038317
v 0.009443 -0.025902 -0.027430
v 0.011401 -0.029921 -0.012559
v 0.013359 -0.025902 0.002313
v 0.014792 -0.014921 0.013200
v 0.014792 0.015079 0.013200
v 0.013359 0.026059 0.002313
v 0.011401 0.030079 -0.012559
v 0.009443 0.026059 -0.027430
v 0.008010 0.015079 -0.038317
v 0.015317 0.000078 0.017185
v 0.015317 0.000079 0.017185
v 0.015317 0.000078 0.017185
v 0.015317 0.000079 0.017185
v 0.015317 0.000078 0.017185
v 0.015317 0.000079 0.017185
v 0.015317 0.000078 0.017185
v 0.015317 0.000079 0.017185
v 0.015317 0.000078 0.017185
v 0.015317 0.000079 0.017185
v 0.015317 0.000078 0.017185
v 0.015317 0.000079 0.017185
v 0.015317 0.000078 0.017185
v 0.015317 0.000079 0.017185
v 0.015317 0.000078 0.017185
v 0.015317 0.000079 0.017185
v 0.015317 0.000078 0.017185
v 0.015317 0.000079 0.017185
v 0.015317 0.000078 0.017185
v 0.015317 0.000079 0.017185
v 0.015317 0.000078 0.017185
v 0.015317 0.000079 0.017185
v 0.015317 0.000078 0.017184
v 0.015317 0.000079 0.017184
v -0.044683 0.000079 0.017185
v -0.040664 -0.014921 0.017185
v -0.029683 -0.025902 0.017185
v -0.014683 -0.029921 0.017185
v 0.000317 -0.025902 0.017185
v 0.011298 -0.014921 0.017185
v 0.011298 0.015079 0.017185
v 0.015317 0.000079 0.017185
v 0.000317 0.026059 0.017185
v -0.014683 0.030079 0.017185
v -0.029683 0.026059 0.017185
v -0.040664 0.015079 0.017185
vt 1.000000 0.500000
vt 1.000000 1.000000
vt 0.916667 1.000000
vt 0.916667 0.500000
vt 0.833333 1.000000
vt 0.833333 0.500000
vt 0.750000 1.000000
vt 0.750000 0.500000
vt 0.666667 1.000000
vt 0.666667 0.500000
vt 0.583333 1.000000
vt 0.583333 0.500000
vt 0.500000 1.000000
vt 0.500000 0.500000
vt 0.416667 1.000000
vt 0.416667 0.500000
vt 0.333333 1.000000
vt 0.333333 0.500000
vt 0.250000 1.000000
vt 0.250000 0.500000
vt 0.166667 1.000000
vt 0.166667 0.500000
vt 0.370000 0.457846
vt 0.250000 0.490000
vt 0.130000 0.457846
vt 0.042154 0.370000
vt 0.010000 0.250000
vt 0.042154 0.130000
vt 0.130000 0.042154
vt 0.250000 0.010000
vt 0.370000 0.042154
vt 0.457846 0.130000
vt 0.490000 0.250000
vt 0.457846 0.370000
vt 0.083333 1.000000
vt 0.083333 0.500000
vt 0.000000 1.000000
vt 0.000000 0.500000
vt 0.750000 0.490000
vt 0.870000 0.457846
vt 0.957846 0.370000
vt 0.990000 0.250000
vt 0.957846 0.130000
vt 0.870000 0.042154
vt 0.750000 0.010000
vt 0.630000 0.042154
vt 0.542154 0.130000
vt 0.510000 0.250000
vt 0.630000 0.457846
vt 0.250000 0.500000
vt 0.250000 0.583333
vt 0.250000 0.583333
vt 0.250000 0.500000
vt 0.250000 0.666667
vt 0.250000 0.666667
vt 0.250000 0.750000
vt 0.250000 0.750000
vt 0.250000 0.833333
vt 0.250000 0.833333
vt 0.250000 0.916667
vt 0.250000 0.916667
vt 0.229167 1.000000
vt 0.229167 1.000000
vt 0.229167 0.000000
vt 0.250000 0.083333
vt 0.250000 0.083333
vt 0.229167 0.000000
vt 0.250000 0.166667
vt 0.250000 0.166667
vt 0.250000 0.250000
vt 0.250000 0.250000
vt 0.250000 0.333333
vt 0.250000 0.333333
vt 0.250000 0.416667
vt 0.250000 0.416667
vt 0.270833 0.500000
vt 0.270833 0.583333
vt 0.270833 0.666667
vt 0.270833 0.750000
vt 0.270833 0.833333
vt 0.270833 0.916667
vt 0.250000 1.000000
vt 0.250000 1.000000
vt 0.250000 0.000000
vt 0.270833 0.083333
vt 0.250000 0.000000
vt 0.270833 0.166667
vt 0.270833 0.250000
vt 0.270833 0.333333
vt 0.270833 0.416667
vt 0.291667 0.500000
vt 0.291667 0.583333
vt 0.291667 0.666667
vt 0.291667 0.750000
vt 0.291667 0.833333
vt 0.291667 0.916667
vt 0.270833 1.000000
vt 0.270833 1.000000
vt 0.270833 0.000000
vt 0.291667 0.083333
vt 0.270833 0.000000
vt 0.291667 0.166667
vt 0.291667 0.250000
vt 0.291667 0.333333
vt 0.291667 0.416667
vt 0.312500 0.500000
vt 0.312500 0.583333
vt 0.312500 0.666667
vt 0.312500 0.750000
vt 0.312500 0.833333
vt 0.312500 0.916667
vt 0.291667 1.000000
vt 0.291667 1.000000
vt 0.291667 0.000000
vt 0.312500 0.083333
vt 0.291667 0.000000
vt 0.312500 0.166667
vt 0.312500 0.250000
vt 0.312500 0.333333
vt 0.312500 0.416667
vt 0.333333 0.500000
vt 0.333333 0.583333
vt 0.333333 0.666667
vt 0.333333 0.750000
vt 0.333333 0.833333
vt 0.333333 0.916667
vt 0.312500 1.000000
vt 0.312500 1.000000
vt 0.312500 0.000000
vt 0.333333 0.083333
vt 0.312500 0.000000
vt 0.333333 0.166667
vt 0.333333 0.250000
vt 0.333333 0.333333
vt 0.333333 0.416667
vt 0.354167 0.500000
vt 0.354167 0.583333
vt 0.354167 0.666667
vt 0.354167 0.750000
vt 0.354167 0.833333
vt 0.354167 0.916667
vt 0.333333 1.000000
vt 0.333333 1.000000
vt 0.333333 0.000000
vt 0.354167 0.083333
vt 0.333333 0.000000
vt 0.354167 0.166667
vt 0.354167 0.250000
vt 0.354167 0.333333
vt 0.354167 0.416667
vt 0.375000 0.500000
vt 0.375000 0.583333
vt 0.375000 0.666667
vt 0.375000 0.750000
vt 0.375000 0.833333
vt 0.375000 0.916667
vt 0.354167 1.000000
vt 0.354167 1.000000
vt 0.354167 0.000000
vt 0.375000 0.083333
vt 0.354167 0.000000
vt 0.375000 0.166667
vt 0.375000 0.250000
vt 0.375000 0.333333
vt 0.375000 0.416667
vt 0.395833 0.500000
vt 0.395833 0.583333
vt 0.395833 0.666667
vt 0.395833 0.750000
vt 0.395833 0.833333
vt 0.395833 0.916667
vt 0.375000 1.000000
vt 0.375000 1.000000
vt 0.375000 0.000000
vt 0.375000 0.000001
vt 0.395833 0.083333
vt 0.395833 0.166667
vt 0.395833 0.250000
vt 0.395833 0.333333
vt 0.395833 0.416667
vt 0.416667 0.500000
vt 0.416667 0.583333
vt 0.416667 0.666667
vt 0.416667 0.750000
vt 0.416667 0.833333
vt 0.416667 0.916667
vt 0.395833 1.000000
vt 0.395833 0.999999
vt 0.395833 0.000001
vt 0.395833 0.000001
vt 0.416667 0.083333
vt 0.416667 0.166667
vt 0.416667 0.250000
vt 0.416667 0.333333
vt 0.416667 0.416667
vt 0.437500 0.500000
vt 0.437500 0.583333
vt 0.437500 0.666667
vt 0.437500 0.750000
vt 0.437500 0.833333
vt 0.437500 0.916667
vt 0.416667 0.999999
vt 0.416667 0.999999
vt 0.416667 0.000001
vt 0.416667 0.000001
vt 0.437500 0.083333
vt 0.437500 0.166667
vt 0.437500 0.250000
vt 0.437500 0.333333
vt 0.437500 0.416667
vt 0.458333 0.500000
vt 0.458333 0.583333
vt 0.458333 0.666667
vt 0.458333 0.750000
vt 0.458333 0.833333
vt 0.458333 0.916667
vt 0.437500 0.999999
vt 0.437500 0.999999
vt 0.437500 0.000001
vt 0.437500 0.000001
vt 0.458333 0.083333
vt 0.458333 0.166667
vt 0.458333 0.250000
vt 0.458333 0.333333
vt 0.458333 0.416667
vt 0.479167 0.500000
vt 0.479167 0.583333
vt 0.479167 0.666667
vt 0.479167 0.750000
vt 0.479167 0.833333
vt 0.479167 0.916667
vt 0.458333 0.999999
vt 0.458333 0.999998
vt 0.458333 0.000001
vt 0.458333 0.000002
vt 0.479167 0.083333
vt 0.479167 0.166667
vt 0.479167 0.250000
vt 0.479167 0.333333
vt 0.479167 0.416667
vt 0.500000 0.583333
vt 0.500000 0.500000
vt 0.500000 0.666667
vt 0.500000 0.750000
vt 0.500000 0.833333
vt 0.500000 0.916667
vt 0.479167 0.999998
vt 0.479167 0.000002
vt 0.500000 0.083333
vt 0.500000 0.166667
vt 0.500000 0.250000
vt 0.500000 0.333333
vt 0.500000 0.416667
vt 0.567214 0.875000
vt 0.567214 0.875000
vt 0.567214 0.875000
vt 0.567214 0.875000
vt 0.567214 0.875000
vt 0.567214 0.875000
vt 0.567214 0.875000
vt 0.567214 0.875000
vt 0.567214 0.875000
vt 0.567214 0.875000
vt 0.567214 0.875000
vt 0.567214 0.875000
vt 0.582838 0.872488
vt 0.594277 0.865625
vt 0.598463 0.856250
vt 0.594276 0.846875
vt 0.582838 0.840012
vt 0.567214 0.837500
vt 0.551589 0.840012
vt 0.540150 0.846875
vt 0.535964 0.856250
vt 0.551588 0.872488
vt 0.567213 0.875000
vt 0.567213 0.875000
vt 0.567213 0.875000
vt 0.567213 0.875000
vt 0.567214 0.875000
vt 0.567214 0.875000
vt 0.567214 0.875000
vt 0.567214 0.875000
vt 0.567214 0.875000
vt 0.567214 0.875000
vt 0.567214 0.875000
vt 0.567214 0.875000
vt 0.567214 0.875000
vt 0.567214 0.875000
vt 0.551589 0.628140
vt 0.540150 0.636719
vt 0.535964 0.648438
vt 0.540150 0.660156
vt 0.551589 0.668735
vt 0.567214 0.671875
vt 0.582839 0.668735
vt 0.594277 0.660156
vt 0.598464 0.648438
vt 0.594277 0.636719
vt 0.582839 0.628140
vt 0.567214 0.625000
vt 0.567213 0.625000
vn 0.0000 0.9659 -0.2588
vn -0.0000 0.7071 -0.7071
vn -0.0000 0.2588 -0.9659
vn -0.0000 -0.2588 -0.9659
vn -0.0000 -0.7071 -0.7071
vn -0.0000 -0.9659 -0.2588
vn -0.0000 -0.9659 0.2588
vn 0.0000 -0.7071 0.7071
vn 0.0000 -0.2588 0.9659
vn -0.0884 0.4193 0.9035
vn 1.0000 -0.0000 -0.0000
vn 0.0000 0.7071 0.7071
vn 0.0000 0.9659 0.2588
vn -1.0000 0.0000 0.0000
vn -0.9685 -0.2491 0.0000
vn -0.7297 -0.6838 0.0000
vn -0.2520 -0.9677 0.0000
vn 0.2520 -0.9677 0.0000
vn 0.8182 -0.5750 0.0000
vn 0.9685 -0.2491 0.0000
vn 0.0000 0.0000 1.0000
vn 0.2520 0.9677 0.0000
vn -0.2520 0.9677 0.0000
vn -0.7297 0.6838 0.0000
vn -0.9685 0.2491 0.0000
vn -0.9640 -0.2583 -0.0632
vn -0.7063 -0.7063 -0.0463
vn -0.2588 -0.9658 -0.0170
vn 0.2588 -0.9658 0.0170
vn 0.7063 -0.7063 0.0463
vn 0.9640 -0.2583 0.0632
vn 0.9640 0.2583 0.0632
vn 0.7063 0.7063 0.0463
vn 0.2588 0.9658 0.0170
vn -0.2588 0.9658 -0.0170
vn -0.7063 0.7063 -0.0463
vn -0.9640 0.2583 -0.0632
vn -0.9475 -0.2583 -0.1885
vn -0.6943 -0.7063 -0.1381
vn -0.2544 -0.9658 -0.0506
vn 0.2544 -0.9658 0.0506
vn 0.6943 -0.7063 0.1381
vn 0.9475 -0.2583 0.1885
vn 0.9475 0.2583 0.1885
vn 0.6943 0.7063 0.1381
vn 0.2544 0.9658 0.0506
vn -0.2544 0.9658 -0.0506
vn -0.6943 0.7063 -0.1381
vn -0.9475 0.2583 -0.1885
vn -0.9148 -0.2583 -0.3105
vn -0.6703 -0.7063 -0.2275
vn -0.2456 -0.9658 -0.0834
vn 0.2456 -0.9658 0.0834
vn 0.6703 -0.7063 0.2275
vn 0.9148 -0.2583 0.3105
vn 0.9148 0.2583 0.3105
vn 0.6703 0.7063 0.2275
vn 0.2456 0.9658 0.0834
vn -0.2456 0.9658 -0.0834
vn -0.6703 0.7063 -0.2275
vn -0.9148 0.2583 -0.3105
vn -0.8664 -0.2583 -0.4273
vn -0.6349 -0.7063 -0.3131
vn -0.2326 -0.9658 -0.1147
vn 0.2326 -0.9658 0.1147
vn 0.6349 -0.7063 0.3131
vn 0.8664 -0.2583 0.4273
vn 0.8664 0.2583 0.4273
vn 0.6349 0.7063 0.3131
vn 0.2326 0.9658 0.1147
vn -0.2326 0.9658 -0.1147
vn -0.6349 0.7063 -0.3131
vn -0.8664 0.2583 -0.4273
vn -0.8033 -0.2583 -0.5367
vn -0.5886 -0.7063 -0.3933
vn -0.2156 -0.9658 -0.1441
vn 0.2156 -0.9658 0.1441
vn 0.5886 -0.7063 0.3933
vn 0.8033 -0.2583 0.5367
vn 0.8033 0.2583 0.5367
vn 0.5886 0.7063 0.3933
vn 0.2156 0.9658 0.1441
vn -0.2156 0.9658 -0.1441
vn -0.5886 0.7063 -0.3933
vn -0.8033 0.2583 -0.5367
vn -0.7263 -0.2583 -0.6370
vn -0.5322 -0.7063 -0.4667
vn -0.1950 -0.9658 -0.1710
vn 0.1950 -0.9658 0.1710
vn 0.5322 -0.7063 0.4667
vn 0.7263 -0.2583 0.6370
vn 0.7263 0.2583 0.6370
vn 0.5322 0.7063 0.4667
vn 0.1950 0.9658 0.1710
vn -0.1950 0.9658 -0.1710
vn -0.5322 0.7063 -0.4667
vn -0.7263 0.2583 -0.6370
vn -0.6370 -0.2583 -0.7263
vn -0.4667 -0.7063 -0.5322
vn -0.1710 -0.9658 -0.1950
vn 0.1710 -0.9658 0.1950
vn 0.4667 -0.7063 0.5322
vn 0.6370 -0.2583 0.7263
vn 0.6370 0.2583 0.7263
vn 0.4667 0.7063 0.5322
vn 0.1710 0.9658 0.1950
vn -0.1710 0.9658 -0.1950
vn -0.4667 0.7063 -0.5322
vn -0.6370 0.2583 -0.7263
vn -0.5367 -0.2583 -0.8033
vn -0.3933 -0.7063 -0.5886
vn -0.1441 -0.9658 -0.2156
vn 0.1441 -0.9658 0.2156
vn 0.3933 -0.7063 0.5886
vn 0.5367 -0.2583 0.8033
vn 0.5367 0.2583 0.8033
vn 0.3933 0.7063 0.5886
vn 0.1441 0.9658 0.2156
vn -0.1441 0.9658 -0.2156
vn -0.3933 0.7063 -0.5886
vn -0.5367 0.2583 -0.8033
vn -0.4273 -0.2583 -0.8664
vn -0.3131 -0.7063 -0.6349
vn -0.1147 -0.9658 -0.2326
vn 0.1147 -0.9658 0.2326
vn 0.3131 -0.7063 0.6349
vn 0.4273 -0.2583 0.8664
vn 0.4273 0.2583 0.8664
vn 0.3131 0.7063 0.6349
vn 0.1147 0.9658 0.2326
vn -0.1147 0.9658 -0.2326
vn -0.3131 0.7063 -0.6349
vn -0.4273 0.2583 -0.8664
vn -0.3105 -0.2583 -0.9148
vn -0.2275 -0.7063 -0.6703
vn -0.0834 -0.9658 -0.2456
vn 0.0834 -0.9658 0.2456
vn 0.2275 -0.7063 0.6703
vn 0.3105 -0.2583 0.9148
vn 0.3105 0.2583 0.9148
vn 0.2275 0.7063 0.6703
vn 0.0834 0.9658 0.2456
vn -0.0834 0.9658 -0.2456
vn -0.2275 0.7063 -0.6703
vn -0.3105 0.2583 -0.9148
vn -0.1885 -0.2583 -0.9475
vn -0.1381 -0.7063 -0.6943
vn -0.0506 -0.9658 -0.2544
vn 0.0506 -0.9658 0.2544
vn 0.1381 -0.7063 0.6943
vn 0.1885 -0.2583 0.9475
vn 0.1885 0.2583 0.9475
vn 0.1381 0.7063 0.6943
vn 0.0506 0.9658 0.2544
vn -0.0506 0.9658 -0.2544
vn -0.1381 0.7063 -0.6943
vn -0.1885 0.2583 -0.9475
vn -0.0632 -0.2583 -0.9640
vn -0.0463 -0.7063 -0.7063
vn -0.0170 -0.9658 -0.2588
vn 0.0170 -0.9658 0.2588
vn 0.0463 -0.7063 0.7063
vn 0.0632 -0.2583 0.9640
vn 0.9917 0.0642 0.1113
vn 0.0463 0.7063 0.7063
vn 0.0170 0.9658 0.2588
vn -0.0170 0.9658 -0.2588
vn -0.0463 0.7063 -0.7063
vn -0.0632 0.2583 -0.9640
usemtl None
s off
f 1/1/1 2/2/1 4/3/1 3/4/1
f 3/4/2 4/3/2 6/5/2 5/6/2
f 5/6/3 6/5/3 8/7/3 7/8/3
f 7/8/4 8/7/4 10/9/4 9/10/4
f 9/10/5 10/9/5 12/11/5 11/12/5
f 11/12/6 12/11/6 14/13/6 13/14/6
f 13/14/7 14/13/7 16/15/7 15/16/7
f 15/16/8 16/15/8 18/17/8 17/18/8
f 17/18/9 18/17/9 20/19/9 19/20/9
f 19/20/10 20/19/10 22/21/10 21/22/10
f 4/23/11 2/24/11 23/25/11 22/26/11 20/27/11 18/28/11 16/29/11 14/30/11 12/31/11 10/32/11 8/33/11 6/34/11
f 21/22/12 22/21/12 23/35/12
f 21/36/13 23/35/13 2/37/13 1/38/13
f 1/39/14 3/40/14 5/41/14 7/42/14 9/43/14 11/44/14 13/45/14 15/46/14 17/47/14 19/48/14 21/49/14
f 24/50/15 25/51/15 181/52/15 180/53/15
f 25/51/16 26/54/16 182/55/16 181/52/16
f 26/54/17 27/56/17 183/57/17 182/55/17
f 27/56/18 28/58/18 184/59/18 183/57/18
f 28/58/19 29/60/19 185/61/19 184/59/19
f 29/60/20 156/62/20 19/63/20 185/61/20
f 157/64/21 30/65/21 186/66/21 187/67/21
f 30/65/21 31/68/21 188/69/21 186/66/21
f 31/68/22 32/70/22 189/71/22 188/69/22
f 32/70/23 33/72/23 190/73/23 189/71/23
f 33/72/24 34/74/24 191/75/24 190/73/24
f 34/74/25 24/50/25 180/53/25 191/75/25
f 24/50/26 35/76/26 36/77/26 25/51/26
f 25/51/27 36/77/27 37/78/27 26/54/27
f 26/54/28 37/78/28 38/79/28 27/56/28
f 27/56/29 38/79/29 39/80/29 28/58/29
f 28/58/30 39/80/30 40/81/30 29/60/30
f 158/82/31 156/83/31 29/60/31 40/81/31
f 159/84/32 41/85/32 30/65/32 157/86/32
f 30/65/33 41/85/33 42/87/33 31/68/33
f 31/68/34 42/87/34 43/88/34 32/70/34
f 32/70/35 43/88/35 44/89/35 33/72/35
f 33/72/36 44/89/36 45/90/36 34/74/36
f 34/74/37 45/90/37 35/76/37 24/50/37
f 35/76/38 46/91/38 47/92/38 36/77/38
f 36/77/39 47/92/39 48/93/39 37/78/39
f 37/78/40 48/93/40 49/94/40 38/79/40
f 38/79/41 49/94/41 50/95/41 39/80/41
f 39/80/42 50/95/42 51/96/42 40/81/42
f 160/97/43 158/98/43 40/81/43 51/96/43
f 161/99/44 52/100/44 41/85/44 159/101/44
f 41/85/45 52/100/45 53/102/45 42/87/45
f 42/87/46 53/102/46 54/103/46 43/88/46
f 43/88/47 54/103/47 55/104/47 44/89/47
f 44/89/48 55/104/48 56/105/48 45/90/48
f 45/90/49 56/105/49 46/91/49 35/76/49
f 46/91/50 57/106/50 58/107/50 47/92/50
f 47/92/51 58/107/51 59/108/51 48/93/51
f 48/93/52 59/108/52 60/109/52 49/94/52
f 49/94/53 60/109/53 61/110/53 50/95/53
f 50/95/54 61/110/54 62/111/54 51/96/54
f 162/112/55 160/113/55 51/96/55 62/111/55
f 163/114/56 63/115/56 52/100/56 161/116/56
f 52/100/57 63/115/57 64/117/57 53/102/57
f 53/102/58 64/117/58 65/118/58 54/103/58
f 54/103/59 65/118/59 66/119/59 55/104/59
f 55/104/60 66/119/60 67/120/60 56/105/60
f 56/105/61 67/120/61 57/106/61 46/91/61
f 57/106/62 68/121/62 69/122/62 58/107/62
f 58/107/63 69/122/63 70/123/63 59/108/63
f 59/108/64 70/123/64 71/124/64 60/109/64
f 60/109/65 71/124/65 72/125/65 61/110/65
f 61/110/66 72/125/66 73/126/66 62/111/66
f 164/127/67 162/128/67 62/111/67 73/126/67
f 165/129/68 74/130/68 63/115/68 163/131/68
f 63/115/69 74/130/69 75/132/69 64/117/69
f 64/117/70 75/132/70 76/133/70 65/118/70
f 65/118/71 76/133/71 77/134/71 66/119/71
f 66/119/72 77/134/72 78/135/72 67/120/72
f 67/120/73 78/135/73 68/121/73 57/106/73
f 68/121/74 79/136/74 80/137/74 69/122/74
f 69/122/75 80/137/75 81/138/75 70/123/75
f 70/123/76 81/138/76 82/139/76 71/124/76
f 71/124/77 82/139/77 83/140/77 72/125/77
f 72/125/78 83/140/78 84/141/78 73/126/78
f 166/142/79 164/143/79 73/126/79 84/141/79
f 167/144/80 85/145/80 74/130/80 165/146/80
f 74/130/81 85/145/81 86/147/81 75/132/81
f 75/132/82 86/147/82 87/148/82 76/133/82
f 76/133/83 87/148/83 88/149/83 77/134/83
f 77/134/84 88/149/84 89/150/84 78/135/84
f 78/135/85 89/150/85 79/136/85 68/121/85
f 79/136/86 90/151/86 91/152/86 80/137/86
f 80/137/87 91/152/87 92/153/87 81/138/87
f 81/138/88 92/153/88 93/154/88 82/139/88
f 82/139/89 93/154/89 94/155/89 83/140/89
f 83/140/90 94/155/90 95/156/90 84/141/90
f 168/157/91 166/158/91 84/141/91 95/156/91
f 169/159/92 96/160/92 85/145/92 167/161/92
f 85/145/93 96/160/93 97/162/93 86/147/93
f 86/147/94 97/162/94 98/163/94 87/148/94
f 87/148/95 98/163/95 99/164/95 88/149/95
f 88/149/96 99/164/96 100/165/96 89/150/96
f 89/150/97 100/165/97 90/151/97 79/136/97
f 90/151/98 101/166/98 102/167/98 91/152/98
f 91/152/99 102/167/99 103/168/99 92/153/99
f 92/153/100 103/168/100 104/169/100 93/154/100
f 93/154/101 104/169/101 105/170/101 94/155/101
f 94/155/102 105/170/102 106/171/102 95/156/102
f 168/172/103 95/156/103 106/171/103 170/173/103
f 96/160/104 169/174/104 171/175/104 107/176/104
f 96/160/105 107/176/105 108/177/105 97/162/105
f 97/162/106 108/177/106 109/178/106 98/163/106
f 98/163/107 109/178/107 110/179/107 99/164/107
f 99/164/108 110/179/108 111/180/108 100/165/108
f 100/165/109 111/180/109 101/166/109 90/151/109
f 101/166/110 112/181/110 113/182/110 102/167/110
f 102/167/111 113/182/111 114/183/111 103/168/111
f 103/168/112 114/183/112 115/184/112 104/169/112
f 104/169/113 115/184/113 116/185/113 105/170/113
f 105/170/114 116/185/114 117/186/114 106/171/114
f 170/187/115 106/171/115 117/186/115 172/188/115
f 107/176/116 171/189/116 173/190/116 118/191/116
f 107/176/117 118/191/117 119/192/117 108/177/117
f 108/177/118 119/192/118 120/193/118 109/178/118
f 109/178/119 120/193/119 121/194/119 110/179/119
f 110/179/120 121/194/120 122/195/120 111/180/120
f 111/180/121 122/195/121 112/181/121 101/166/121
f 112/181/122 123/196/122 124/197/122 113/182/122
f 113/182/123 124/197/123 125/198/123 114/183/123
f 114/183/124 125/198/124 126/199/124 115/184/124
f 115/184/125 126/199/125 127/200/125 116/185/125
f 116/185/126 127/200/126 128/201/126 117/186/126
f 172/202/127 117/186/127 128/201/127 174/203/127
f 118/191/128 173/204/128 175/205/128 129/206/128
f 118/191/129 129/206/129 130/207/129 119/192/129
f 119/192/130 130/207/130 131/208/130 120/193/130
f 120/193/131 131/208/131 132/209/131 121/194/131
f 121/194/132 132/209/132 133/210/132 122/195/132
f 122/195/133 133/210/133 123/196/133 112/181/133
f 123/196/134 134/211/134 135/212/134 124/197/134
f 124/197/135 135/212/135 136/213/135 125/198/135
f 125/198/136 136/213/136 137/214/136 126/199/136
f 126/199/137 137/214/137 138/215/137 127/200/137
f 127/200/138 138/215/138 139/216/138 128/201/138
f 174/217/139 128/201/139 139/216/139 176/218/139
f 129/206/140 175/219/140 177/220/140 140/221/140
f 129/206/141 140/221/141 141/222/141 130/207/141
f 130/207/142 141/222/142 142/223/142 131/208/142
f 131/208/143 142/223/143 143/224/143 132/209/143
f 132/209/144 143/224/144 144/225/144 133/210/144
f 133/210/145 144/225/145 134/211/145 123/196/145
f 134/211/146 145/226/146 146/227/146 135/212/146
f 135/212/147 146/227/147 147/228/147 136/213/147
f 136/213/148 147/228/148 148/229/148 137/214/148
f 137/214/149 148/229/149 149/230/149 138/215/149
f 138/215/150 149/230/150 150/231/150 139/216/150
f 176/232/151 139/216/151 150/231/151 178/233/151
f 140/221/152 177/234/152 179/235/152 151/236/152
f 140/221/153 151/236/153 152/237/153 141/222/153
f 141/222/154 152/237/154 153/238/154 142/223/154
f 142/223/155 153/238/155 154/239/155 143/224/155
f 143/224/156 154/239/156 155/240/156 144/225/156
f 144/225/157 155/240/157 145/226/157 134/211/157
f 9/241/158 146/227/158 145/226/158 7/242/158
f 11/243/159 147/228/159 146/227/159 9/241/159
f 13/244/160 148/229/160 147/228/160 11/243/160
f 15/245/161 149/230/161 148/229/161 13/244/161
f 17/246/162 150/231/162 149/230/162 15/245/162
f 150/231/163 17/246/163 178/247/163
f 151/236/164 179/248/164 21/249/164
f 21/250/165 152/237/165 151/236/165
f 1/251/166 153/238/166 152/237/166 21/250/166
f 3/252/167 154/239/167 153/238/167 1/251/167
f 5/253/168 155/240/168 154/239/168 3/252/168
f 7/242/169 145/226/169 155/240/169 5/253/169
f 156/254/11 158/255/11 160/256/11 162/257/11 164/258/11 166/259/11 168/260/11 170/261/11 172/262/11 174/263/11 176/264/11 178/265/11 17/266/11 15/267/11 13/268/11 11/269/11 9/270/11 7/271/11 5/272/11 3/273/11 1/274/11 21/275/11 179/276/11 177/277/11 175/278/11 173/279/11 171/280/11 169/281/11 167/282/11 165/283/11 163/284/11 161/285/11 159/286/11 157/287/11 187/288/11 19/289/11
f 186/290/21 188/291/21 189/292/21 190/293/21 191/294/21 180/295/21 181/296/21 182/297/21 183/298/21 184/299/21 185/300/21 19/301/21 187/302/21
