# Blender v3.2.0 OBJ File: 'everyday_bot_copy.blend'
# www.blender.org
mtllib body_base.mtl
o body_base_Cylinder.058
v 0.000000 0.039600 0.020000
v 0.019800 0.034295 0.020000
v 0.034295 0.019800 0.020000
v 0.039600 -0.000000 0.020000
v 0.034295 -0.019800 0.020000
v 0.019800 -0.034295 0.020000
v -0.000000 -0.039600 0.020000
v -0.019800 -0.034295 0.020000
v -0.034295 -0.019800 0.020000
v -0.039600 0.000000 0.020000
v -0.034295 0.019800 0.020000
v -0.019800 0.034295 0.020000
v 0.000000 0.039600 -0.000525
v 0.019800 0.034295 -0.000525
v 0.034295 0.019800 -0.000525
v 0.039600 -0.000000 -0.000525
v 0.034295 -0.019800 -0.000525
v 0.019800 -0.034295 -0.000525
v -0.000000 -0.039600 -0.000525
v -0.019800 -0.034295 -0.000525
v -0.034295 -0.019800 -0.000525
v -0.039600 0.000000 -0.000525
v -0.034295 0.019800 -0.000525
v -0.019800 0.034295 -0.000525
vt 1.000000 0.743437
vt 1.000000 1.000000
vt 0.916667 1.000000
vt 0.916667 0.743437
vt 0.833333 1.000000
vt 0.833333 0.743437
vt 0.750000 1.000000
vt 0.750000 0.743437
vt 0.666667 1.000000
vt 0.666667 0.743437
vt 0.583333 1.000000
vt 0.583333 0.743437
vt 0.500000 1.000000
vt 0.500000 0.743437
vt 0.416667 1.000000
vt 0.416667 0.743437
vt 0.333333 1.000000
vt 0.333333 0.743437
vt 0.250000 1.000000
vt 0.250000 0.743437
vt 0.166667 1.000000
vt 0.166667 0.743437
vt 0.042154 0.370000
vt 0.010000 0.250000
vt 0.042154 0.130000
vt 0.130000 0.042154
vt 0.250000 0.010000
vt 0.370000 0.042154
vt 0.457846 0.130000
vt 0.490000 0.250000
vt 0.457846 0.370000
vt 0.370000 0.457846
vt 0.250000 0.490000
vt 0.130000 0.457846
vt 0.083333 1.000000
vt 0.083333 0.743437
vt 0.000000 1.000000
vt 0.000000 0.743437
vt 0.661250 0.601184
vt 0.651184 0.611250
vt 0.647500 0.625000
vt 0.651184 0.638750
vt 0.661250 0.648816
vt 0.675000 0.652500
vt 0.688750 0.648816
vt 0.698816 0.638750
vt 0.702500 0.625000
vt 0.698816 0.611250
vt 0.688750 0.601184
vt 0.675000 0.597500
vn 0.2588 0.9659 0.0000
vn 0.7071 0.7071 0.0000
vn 0.9659 0.2588 0.0000
vn 0.9659 -0.2588 0.0000
vn 0.7071 -0.7071 0.0000
vn 0.2588 -0.9659 0.0000
vn -0.2588 -0.9659 0.0000
vn -0.7071 -0.7071 0.0000
vn -0.9659 -0.2588 0.0000
vn -0.9659 0.2588 0.0000
vn 0.0000 0.0000 1.0000
vn -0.7071 0.7071 0.0000
vn -0.2588 0.9659 0.0000
vn 0.0000 0.0000 -1.0000
usemtl None
s off
f 13/1/1 1/2/1 2/3/1 14/4/1
f 14/4/2 2/3/2 3/5/2 15/6/2
f 15/6/3 3/5/3 4/7/3 16/8/3
f 16/8/4 4/7/4 5/9/4 17/10/4
f 17/10/5 5/9/5 6/11/5 18/12/5
f 18/12/6 6/11/6 7/13/6 19/14/6
f 19/14/7 7/13/7 8/15/7 20/16/7
f 20/16/8 8/15/8 9/17/8 21/18/8
f 21/18/9 9/17/9 10/19/9 22/20/9
f 22/20/10 10/19/10 11/21/10 23/22/10
f 11/23/11 10/24/11 9/25/11 8/26/11 7/27/11 6/28/11 5/29/11 4/30/11 3/31/11 2/32/11 1/33/11 12/34/11
f 23/22/12 11/21/12 12/35/12 24/36/12
f 24/36/13 12/35/13 1/37/13 13/38/13
f 14/39/14 15/40/14 16/41/14 17/42/14 18/43/14 19/44/14 20/45/14 21/46/14 22/47/14 23/48/14 24/49/14 13/50/14
