# Blender v3.2.0 OBJ File: 'everyday_bot_copy.blend'
# www.blender.org
mtllib body_link1.mtl
o body_link1_Cylinder.039
v 0.000000 0.036750 -0.006667
v 0.000000 0.036000 0.115460
v 0.018375 0.031826 -0.006667
v 0.018000 0.031177 0.115460
v 0.031826 0.018375 -0.006667
v 0.031177 0.018000 0.115460
v 0.036750 -0.000000 -0.006667
v 0.036000 -0.000000 0.115460
v 0.031826 -0.018375 -0.006667
v 0.031177 -0.018000 0.115460
v 0.018375 -0.031826 -0.006667
v 0.018000 -0.031177 0.115460
v -0.000000 -0.036750 -0.006667
v 0.000000 -0.036000 0.115460
v -0.018375 -0.031826 -0.006667
v -0.018000 -0.031177 0.115460
v -0.031826 -0.018375 -0.006667
v -0.031177 -0.018000 0.115460
v -0.036750 0.000000 -0.006667
v -0.036000 0.000000 0.115460
v -0.031826 0.018375 -0.006667
v -0.031177 0.018000 0.115460
v -0.018375 0.031826 -0.006667
v -0.018000 0.031177 0.115460
v -0.000000 0.037500 -0.108794
v 0.018750 0.032476 -0.108794
v 0.032476 0.018750 -0.108794
v 0.037500 -0.000000 -0.108794
v 0.032476 -0.018750 -0.108794
v 0.018750 -0.032476 -0.108794
v -0.000000 -0.037500 -0.108794
v -0.018750 -0.032476 -0.108794
v -0.032476 -0.018750 -0.108794
v -0.037500 0.000000 -0.108794
v -0.032476 0.018750 -0.108794
v -0.018750 0.032476 -0.108794
vt 1.000000 0.500000
vt 1.000000 1.000000
vt 0.916667 1.000000
vt 0.916667 0.500000
vt 0.833333 1.000000
vt 0.833333 0.500000
vt 0.750000 1.000000
vt 0.750000 0.500000
vt 0.666667 1.000000
vt 0.666667 0.500000
vt 0.583333 1.000000
vt 0.583333 0.500000
vt 0.500000 1.000000
vt 0.500000 0.500000
vt 0.416667 1.000000
vt 0.416667 0.500000
vt 0.333333 1.000000
vt 0.333333 0.500000
vt 0.250000 1.000000
vt 0.250000 0.500000
vt 0.166667 1.000000
vt 0.166667 0.500000
vt 0.370000 0.457846
vt 0.250000 0.490000
vt 0.130000 0.457846
vt 0.042154 0.370000
vt 0.010000 0.250000
vt 0.042154 0.130000
vt 0.130000 0.042154
vt 0.250000 0.010000
vt 0.370000 0.042154
vt 0.457846 0.130000
vt 0.490000 0.250000
vt 0.457846 0.370000
vt 0.083333 1.000000
vt 0.083333 0.500000
vt 0.000000 1.000000
vt 0.000000 0.500000
vt 0.750000 0.490000
vt 0.870000 0.457846
vt 0.957846 0.370000
vt 0.990000 0.250000
vt 0.957846 0.130000
vt 0.870000 0.042154
vt 0.750000 0.010000
vt 0.630000 0.042154
vt 0.542154 0.130000
vt 0.510000 0.250000
vt 0.542154 0.370000
vt 0.630000 0.457846
vt 1.000000 0.500000
vt 1.000000 1.000000
vt 0.916667 1.000000
vt 0.916667 0.500000
vt 0.833333 1.000000
vt 0.833333 0.500000
vt 0.750000 1.000000
vt 0.750000 0.500000
vt 0.666667 1.000000
vt 0.666667 0.500000
vt 0.583333 1.000000
vt 0.583333 0.500000
vt 0.500000 1.000000
vt 0.500000 0.500000
vt 0.416667 1.000000
vt 0.416667 0.500000
vt 0.333333 1.000000
vt 0.333333 0.500000
vt 0.250000 1.000000
vt 0.250000 0.500000
vt 0.166667 1.000000
vt 0.166667 0.500000
vt 0.083333 1.000000
vt 0.083333 0.500000
vt 0.000000 1.000000
vt 0.000000 0.500000
vt 0.750000 0.490000
vt 0.870000 0.457846
vt 0.957846 0.370000
vt 0.990000 0.250000
vt 0.957846 0.130000
vt 0.870000 0.042154
vt 0.750000 0.010000
vt 0.630000 0.042154
vt 0.542154 0.130000
vt 0.510000 0.250000
vt 0.542154 0.370000
vt 0.630000 0.457846
vn 0.2588 0.9659 0.0059
vn 0.7071 0.7071 0.0059
vn 0.9659 0.2588 0.0059
vn 0.9659 -0.2588 0.0059
vn 0.7071 -0.7071 0.0059
vn 0.2588 -0.9659 0.0059
vn -0.2588 -0.9659 0.0059
vn -0.7071 -0.7071 0.0059
vn -0.9659 -0.2588 0.0059
vn -0.9659 0.2588 0.0059
vn 0.0000 0.0000 1.0000
vn -0.7071 0.7071 0.0059
vn -0.2588 0.9659 0.0059
vn -0.0000 0.0000 -1.0000
vn 0.2588 0.9659 0.0071
vn 0.7071 0.7071 0.0071
vn 0.9659 0.2588 0.0071
vn 0.9659 -0.2588 0.0071
vn 0.7071 -0.7071 0.0071
vn 0.2588 -0.9659 0.0071
vn -0.2588 -0.9659 0.0071
vn -0.7071 -0.7071 0.0071
vn -0.9659 -0.2588 0.0071
vn -0.9659 0.2588 0.0071
vn -0.7071 0.7071 0.0071
vn -0.2588 0.9659 0.0071
usemtl None
s off
f 1/1/1 2/2/1 4/3/1 3/4/1
f 3/4/2 4/3/2 6/5/2 5/6/2
f 5/6/3 6/5/3 8/7/3 7/8/3
f 7/8/4 8/7/4 10/9/4 9/10/4
f 9/10/5 10/9/5 12/11/5 11/12/5
f 11/12/6 12/11/6 14/13/6 13/14/6
f 13/14/7 14/13/7 16/15/7 15/16/7
f 15/16/8 16/15/8 18/17/8 17/18/8
f 17/18/9 18/17/9 20/19/9 19/20/9
f 19/20/10 20/19/10 22/21/10 21/22/10
f 4/23/11 2/24/11 24/25/11 22/26/11 20/27/11 18/28/11 16/29/11 14/30/11 12/31/11 10/32/11 8/33/11 6/34/11
f 21/22/12 22/21/12 24/35/12 23/36/12
f 23/36/13 24/35/13 2/37/13 1/38/13
f 1/39/14 3/40/14 5/41/14 7/42/14 9/43/14 11/44/14 13/45/14 15/46/14 17/47/14 19/48/14 21/49/14 23/50/14
f 25/51/15 1/52/15 3/53/15 26/54/15
f 26/54/16 3/53/16 5/55/16 27/56/16
f 27/56/17 5/55/17 7/57/17 28/58/17
f 28/58/18 7/57/18 9/59/18 29/60/18
f 29/60/19 9/59/19 11/61/19 30/62/19
f 30/62/20 11/61/20 13/63/20 31/64/20
f 31/64/21 13/63/21 15/65/21 32/66/21
f 32/66/22 15/65/22 17/67/22 33/68/22
f 33/68/23 17/67/23 19/69/23 34/70/23
f 34/70/24 19/69/24 21/71/24 35/72/24
f 35/72/25 21/71/25 23/73/25 36/74/25
f 36/74/26 23/73/26 1/75/26 25/76/26
f 25/77/14 26/78/14 27/79/14 28/80/14 29/81/14 30/82/14 31/83/14 32/84/14 33/85/14 34/86/14 35/87/14 36/88/14
